<svg width="56.693000000000005" height="56.693000000000005" xmlns="http://www.w3.org/2000/svg">

 <g>
  <title>background</title>
  <rect fill="none" id="canvas_background" height="402" width="582" y="-1" x="-1"/>
 </g>
 <g>
  <title>Layer 1</title>
  <path fill="#ffffff" id="svg_2" d="m41.777,30.517c-0.062,-6.232 5.082,-9.221 5.312,-9.372c-2.891,-4.227 -7.395,-4.807 -8.998,-4.873c-3.83,-0.389 -7.477,2.256 -9.42,2.256c-1.939,0 -4.941,-2.199 -8.117,-2.143c-4.178,0.062 -8.029,2.43 -10.179,6.17c-4.339,7.527 -1.11,18.682 3.118,24.791c2.067,2.986 4.532,6.346 7.766,6.223c3.117,-0.123 4.293,-2.016 8.061,-2.016s4.826,2.016 8.123,1.953c3.352,-0.061 5.477,-3.043 7.527,-6.041c2.373,-3.469 3.35,-6.828 3.408,-6.998c-0.073,-0.034 -6.534,-2.509 -6.601,-9.95z"/>
  <path fill="#ffffff" id="svg_3" d="m35.477053,12.229c1.715,-2.082 2.877,-4.975 2.561,-7.855c-2.475,0.1 -5.471,1.645 -7.248,3.725c-1.592,1.846 -2.984,4.785 -2.611,7.613c2.761,0.214 5.577,-1.405 7.298,-3.483z"/>
 </g>
</svg>